<svg xmlns="http://www.w3.org/2000/svg" width="64" height="64" viewBox="0 0 64 64">
  <defs>
    <linearGradient id="action-bg" x1="8" y1="10" x2="56" y2="54" gradientUnits="userSpaceOnUse">
      <stop offset="0" stop-color="#f59e0b"/>
      <stop offset="1" stop-color="#ef4444"/>
    </linearGradient>
    <linearGradient id="action-gloss" x1="16" y1="10" x2="48" y2="48" gradientUnits="userSpaceOnUse">
      <stop offset="0" stop-color="#ffffff" stop-opacity="0.34"/>
      <stop offset="1" stop-color="#ffffff" stop-opacity="0"/>
    </linearGradient>
  </defs>
  <rect x="4" y="4" width="56" height="56" rx="18" fill="url(#action-bg)"/>
  <rect x="8" y="8" width="46" height="20" rx="14" fill="url(#action-gloss)"/>
  <g fill="none" stroke="#ffffff" stroke-linecap="round" stroke-linejoin="round" stroke-width="2.4" transform="translate(14.6 13.4) scale(1.45)">
    <path d="M8 13V4.5a1.5 1.5 0 0 1 3 0V12m0-.5v-2a1.5 1.5 0 0 1 3 0V12m0-1.5a1.5 1.5 0 0 1 3 0V12"/>
    <path d="M17 11.5a1.5 1.5 0 0 1 3 0V16a6 6 0 0 1-6 6h-2h.208a6 6 0 0 1-5.012-2.7L7 19q-.468-.718-3.286-5.728a1.5 1.5 0 0 1 .536-2.022a1.87 1.87 0 0 1 2.28.28L8 13M5 3L4 2m0 5H3m11-4l1-1m0 4h1"/>
  </g>
</svg>
